{"title":"Season Of The Witch (2010) PPVRIP IFLIX","uid":6221491,"size":1197333377,"categoryP":"video","categoryS":"movies","magnet":"?xt=urn:btih:5e194c3994c8b69798d4f5fa9f61bf7d23b6edbd&amp;dn=Season+Of+The+Witch+%282010%29+PPVRIP+IFLIX&amp;tr=udp%3A%2F%2Ftracker.openbittorrent.com%3A80&amp;tr=udp%3A%2F%2Fopen.demonii.com%3A1337&amp;tr=udp%3A%2F%2Ftracker.coppersurfer.tk%3A6969&amp;tr=udp%3A%2F%2Fexodus.desync.com%3A6969","seeders":2,"leechers":0,"uploader":"IwannaFan2","files":-1,"time":1299345915,"description":"Season Of The Witch PPVRIP IFLIX &lt;a href=&quot;\nhttp://www.imdb.com/title/tt0479997/&quot; rel=&quot;nofollow&quot; target=&quot;_NEW&quot;&gt;\nhttp://www.imdb.com/title/tt0479997/&lt;/a&gt;\n\n[IMG]http://img155.imageshack.us/img155/1517/seasonofthewitchposter6.jpg[/IMG]\n[IMG]http://img17.imageshack.us/img17/8241/95272554.png[/IMG]\n[IMG]http://img687.imageshack.us/img687/3222/14825542.png[/IMG]\n[IMG]http://img231.imageshack.us/img231/4163/46234143.png[/IMG]\nTrailer\n\nFormat                           : AVI\nFormat/Info                      : Audio Video Interleave\nFormat profile                   : OpenDML\nFile size                        : 1.11 GiB\nDuration                         : 1h 33mn\nOverall bit rate                 : 1 695 Kbps\n\nVideo\nID                               : 0\nFormat                           : MPEG-4 Visual\nFormat profile                   : Simple@L3\nFormat settings, BVOP            : No\nFormat settings, QPel            : No\nFormat settings, GMC             : No warppoints\nFormat settings, Matrix          : Default (H.263)\nCodec ID                         : XVID\nCodec ID/Hint                    : XviD\nDuration                         : 1h 33mn\nBit rate                         : 1 550 Kbps\nWidth                            : 720 pixels\nHeight                           : 480 pixels\nDisplay aspect ratio             : 1.500\nFrame rate                       : 29.970 fps\nOriginal frame rate              : 29.000 fps\nStandard                         : NTSC\nResolution                       : 24 bits\nColorimetry                      : 4:2:0\nScan type                        : Progressive\nBits/(Pixel*Frame)               : 0.150\nStream size                      : 1.02 GiB (91%)\nWriting library                  : XviD 1.2.1 (UTC 2008-12-04)\n\nAudio\nID                               : 1\nFormat                           : MPEG Audio\nFormat version                   : Version 1\nFormat profile                   : Layer 3\nFormat_Settings_Mode             : Joint stereo / MS Stereo\nCodec ID                         : 55\nCodec ID/Hint                    : MP3\nDuration                         : 1h 33mn\nBit rate mode                    : Constant\nBit rate                         : 128 Kbps\nChannel(s)                       : 2 channels\nSampling rate                    : 44.1 KHz\nResolution                       : 16 bits\nStream size                      : 85.9 MiB (8%)\nAlignment                        : Aligned on interleaves\nInterleave, duration             : 26 ms (0.78 video frame)\nWriting library                  : LAME3.98.2\n\nRelease notes...\n\nAnother quality release from IFLIX\nMore to come very soon!\n\nVideo source: Ours\nAudio source: Ours\n\nGreetings to all other groups out there. You all do awesome work and we greatly appreciate it.\nIFLIX :-)\n\n","torrent":{"xt":"urn:btih:5e194c3994c8b69798d4f5fa9f61bf7d23b6edbd","amp;dn":"Season+Of+The+Witch+%282010%29+PPVRIP+IFLIX","amp;tr":["udp%3A%2F%2Ftracker.openbittorrent.com%3A80","udp%3A%2F%2Fopen.demonii.com%3A1337","udp%3A%2F%2Ftracker.coppersurfer.tk%3A6969","udp%3A%2F%2Fexodus.desync.com%3A6969"],"infoHash":"5e194c3994c8b69798d4f5fa9f61bf7d23b6edbd","infoHashBuffer":{"type":"Buffer","data":[94,25,76,57,148,200,182,151,152,212,245,250,159,97,191,125,35,182,237,189]},"announce":[],"urlList":[]}}